<svg fill="none" viewBox="0 0 600 300" width="600" height="300" xmlns="http://www.w3.org/2000/svg">
  <foreignObject width="100%" height="100%">
    <div xmlns="http://www.w3.org/1999/xhtml">
      <style>
        @keyframes hi {
        0% { transform: rotate( 0.0deg) }
        10% { transform: rotate(14.0deg) }
        20% { transform: rotate(-8.0deg) }
        30% { transform: rotate(14.0deg) }
        40% { transform: rotate(-4.0deg) }
        50% { transform: rotate(10.0deg) }
        60% { transform: rotate( 0.0deg) }
        100% { transform: rotate( 0.0deg) }
        }

        .flex-container {
        display: flex;
        gap: 0.5rem;
        align-items: center;
        border-radius: 0.375rem;
        }
      </style>
      <div class="flex-container">
        <div style="font-size: 2rem">About Me:</div>
        <div>
          <svg xmlns="http://www.w3.org/2000/svg" width="427" height="280" viewBox="0 0 427 280">
            <rect width="427" height="280" fill="#0D1117" rx="8" />
            <rect x="20" y="20" width="77.46" height="240" fill="#BF0A30" opacity="0.15" />
            <rect x="97.46" y="20" width="19.37" height="240" fill="#C8992A" opacity="0.15" />
            <rect x="116.83" y="20" width="193.66" height="240" fill="#002868" opacity="0.35" />
            <rect x="310.49" y="20" width="19.37" height="240" fill="#C8992A" opacity="0.15" />
            <rect x="329.86" y="20" width="77.46" height="240" fill="#BF0A30" opacity="0.15" />
            <g font-family="Courier New, Courier, monospace" font-size="14" font-weight="bold">
              <text x="20.00" y="36" fill="#BF0A30">:</text>
              <text x="29.68" y="36" fill="#BF0A30">:</text>
              <text x="39.37" y="36" fill="#BF0A30">:</text>
              <text x="49.05" y="36" fill="#BF0A30">:</text>
              <text x="58.73" y="36" fill="#BF0A30">:</text>
              <text x="68.41" y="36" fill="#BF0A30">:</text>
              <text x="78.10" y="36" fill="#BF0A30">:</text>
              <text x="87.78" y="36" fill="#BF0A30">:</text>
              <text x="97.46" y="36" fill="#C8992A">+</text>
              <text x="107.15" y="36" fill="#C8992A">*</text>
              <text x="116.83" y="36" fill="#FFFFFF">.</text>
              <text x="136.20" y="36" fill="#FFFFFF">.</text>
              <text x="145.88" y="36" fill="#FFFFFF">.</text>
              <text x="155.56" y="36" fill="#FFFFFF">.</text>
              <text x="165.25" y="36" fill="#FFFFFF">.</text>
              <text x="174.93" y="36" fill="#FFFFFF">.</text>
              <text x="184.61" y="36" fill="#FFFFFF">.</text>
              <text x="194.29" y="36" fill="#FFFFFF">.</text>
              <text x="223.34" y="36" fill="#FFFFFF">.</text>
              <text x="233.03" y="36" fill="#FFFFFF">.</text>
              <text x="242.71" y="36" fill="#FFFFFF">.</text>
              <text x="252.39" y="36" fill="#FFFFFF">.</text>
              <text x="262.07" y="36" fill="#FFFFFF">.</text>
              <text x="271.76" y="36" fill="#FFFFFF">.</text>
              <text x="281.44" y="36" fill="#FFFFFF">.</text>
              <text x="300.81" y="36" fill="#FFFFFF">.</text>
              <text x="310.49" y="36" fill="#C8992A">*</text>
              <text x="320.17" y="36" fill="#C8992A">+</text>
              <text x="329.86" y="36" fill="#BF0A30">:</text>
              <text x="339.54" y="36" fill="#BF0A30">:</text>
              <text x="349.22" y="36" fill="#BF0A30">:</text>
              <text x="358.90" y="36" fill="#BF0A30">:</text>
              <text x="368.59" y="36" fill="#BF0A30">:</text>
              <text x="378.27" y="36" fill="#BF0A30">:</text>
              <text x="387.95" y="36" fill="#BF0A30">:</text>
              <text x="397.64" y="36" fill="#BF0A30">:</text>
              <text x="20.00" y="56" fill="#BF0A30">:</text>
              <text x="29.68" y="56" fill="#BF0A30">:</text>
              <text x="39.37" y="56" fill="#BF0A30">:</text>
              <text x="49.05" y="56" fill="#BF0A30">:</text>
              <text x="58.73" y="56" fill="#BF0A30">:</text>
              <text x="68.41" y="56" fill="#BF0A30">:</text>
              <text x="78.10" y="56" fill="#BF0A30">:</text>
              <text x="87.78" y="56" fill="#BF0A30">:</text>
              <text x="97.46" y="56" fill="#C8992A">+</text>
              <text x="107.15" y="56" fill="#C8992A">*</text>
              <text x="116.83" y="56" fill="#FFFFFF">.</text>
              <text x="136.20" y="56" fill="#FFFFFF">.</text>
              <text x="145.88" y="56" fill="#FFFFFF">.</text>
              <text x="184.61" y="56" fill="#FFFFFF">.</text>
              <text x="194.29" y="56" fill="#FFFFFF">.</text>
              <text x="203.98" y="56" fill="#FFFFFF">.</text>
              <text x="213.66" y="56" fill="#FFFFFF">.</text>
              <text x="223.34" y="56" fill="#FFFFFF">.</text>
              <text x="233.03" y="56" fill="#FFFFFF">.</text>
              <text x="271.76" y="56" fill="#FFFFFF">.</text>
              <text x="281.44" y="56" fill="#FFFFFF">.</text>
              <text x="300.81" y="56" fill="#FFFFFF">.</text>
              <text x="310.49" y="56" fill="#C8992A">*</text>
              <text x="320.17" y="56" fill="#C8992A">+</text>
              <text x="329.86" y="56" fill="#BF0A30">:</text>
              <text x="339.54" y="56" fill="#BF0A30">:</text>
              <text x="349.22" y="56" fill="#BF0A30">:</text>
              <text x="358.90" y="56" fill="#BF0A30">:</text>
              <text x="368.59" y="56" fill="#BF0A30">:</text>
              <text x="378.27" y="56" fill="#BF0A30">:</text>
              <text x="387.95" y="56" fill="#BF0A30">:</text>
              <text x="397.64" y="56" fill="#BF0A30">:</text>
              <text x="20.00" y="76" fill="#BF0A30">:</text>
              <text x="29.68" y="76" fill="#BF0A30">:</text>
              <text x="39.37" y="76" fill="#BF0A30">:</text>
              <text x="49.05" y="76" fill="#BF0A30">:</text>
              <text x="58.73" y="76" fill="#BF0A30">:</text>
              <text x="68.41" y="76" fill="#BF0A30">:</text>
              <text x="78.10" y="76" fill="#BF0A30">:</text>
              <text x="87.78" y="76" fill="#BF0A30">:</text>
              <text x="97.46" y="76" fill="#C8992A">+</text>
              <text x="107.15" y="76" fill="#C8992A">*</text>
              <text x="116.83" y="76" fill="#FFFFFF">.</text>
              <text x="136.20" y="76" fill="#FFFFFF">.</text>
              <text x="155.56" y="76" fill="#FFFFFF">.</text>
              <text x="165.25" y="76" fill="#FFFFFF">.</text>
              <text x="174.93" y="76" fill="#FFFFFF">:</text>
              <text x="184.61" y="76" fill="#FFFFFF">:</text>
              <text x="194.29" y="76" fill="#FFFFFF">:</text>
              <text x="203.98" y="76" fill="#FFFFFF">:</text>
              <text x="213.66" y="76" fill="#FFFFFF">:</text>
              <text x="223.34" y="76" fill="#FFFFFF">:</text>
              <text x="233.03" y="76" fill="#FFFFFF">:</text>
              <text x="242.71" y="76" fill="#FFFFFF">:</text>
              <text x="252.39" y="76" fill="#FFFFFF">.</text>
              <text x="262.07" y="76" fill="#FFFFFF">.</text>
              <text x="281.44" y="76" fill="#FFFFFF">.</text>
              <text x="300.81" y="76" fill="#FFFFFF">.</text>
              <text x="310.49" y="76" fill="#C8992A">*</text>
              <text x="320.17" y="76" fill="#C8992A">+</text>
              <text x="329.86" y="76" fill="#BF0A30">:</text>
              <text x="339.54" y="76" fill="#BF0A30">:</text>
              <text x="349.22" y="76" fill="#BF0A30">:</text>
              <text x="358.90" y="76" fill="#BF0A30">:</text>
              <text x="368.59" y="76" fill="#BF0A30">:</text>
              <text x="378.27" y="76" fill="#BF0A30">:</text>
              <text x="387.95" y="76" fill="#BF0A30">:</text>
              <text x="397.64" y="76" fill="#BF0A30">:</text>
              <text x="20.00" y="96" fill="#BF0A30">:</text>
              <text x="29.68" y="96" fill="#BF0A30">:</text>
              <text x="39.37" y="96" fill="#BF0A30">:</text>
              <text x="49.05" y="96" fill="#BF0A30">:</text>
              <text x="58.73" y="96" fill="#BF0A30">:</text>
              <text x="68.41" y="96" fill="#BF0A30">:</text>
              <text x="78.10" y="96" fill="#BF0A30">:</text>
              <text x="87.78" y="96" fill="#BF0A30">:</text>
              <text x="97.46" y="96" fill="#C8992A">+</text>
              <text x="107.15" y="96" fill="#C8992A">*</text>
              <text x="116.83" y="96" fill="#FFFFFF">.</text>
              <text x="145.88" y="96" fill="#FFFFFF">.</text>
              <text x="155.56" y="96" fill="#FFFFFF">:</text>
              <text x="165.25" y="96" fill="#FFFFFF">:</text>
              <text x="174.93" y="96" fill="#FFFFFF">.</text>
              <text x="184.61" y="96" fill="#FFFFFF">.</text>
              <text x="223.34" y="96" fill="#FFFFFF">.</text>
              <text x="242.71" y="96" fill="#FFFFFF">.</text>
              <text x="252.39" y="96" fill="#FFFFFF">:</text>
              <text x="262.07" y="96" fill="#FFFFFF">:</text>
              <text x="271.76" y="96" fill="#FFFFFF">.</text>
              <text x="300.81" y="96" fill="#FFFFFF">.</text>
              <text x="310.49" y="96" fill="#C8992A">*</text>
              <text x="320.17" y="96" fill="#C8992A">+</text>
              <text x="329.86" y="96" fill="#BF0A30">:</text>
              <text x="339.54" y="96" fill="#BF0A30">:</text>
              <text x="349.22" y="96" fill="#BF0A30">:</text>
              <text x="358.90" y="96" fill="#BF0A30">:</text>
              <text x="368.59" y="96" fill="#BF0A30">:</text>
              <text x="378.27" y="96" fill="#BF0A30">:</text>
              <text x="387.95" y="96" fill="#BF0A30">:</text>
              <text x="397.64" y="96" fill="#BF0A30">:</text>
              <text x="20.00" y="116" fill="#BF0A30">:</text>
              <text x="29.68" y="116" fill="#BF0A30">:</text>
              <text x="39.37" y="116" fill="#BF0A30">:</text>
              <text x="49.05" y="116" fill="#BF0A30">:</text>
              <text x="58.73" y="116" fill="#BF0A30">:</text>
              <text x="68.41" y="116" fill="#BF0A30">:</text>
              <text x="78.10" y="116" fill="#BF0A30">:</text>
              <text x="87.78" y="116" fill="#BF0A30">:</text>
              <text x="97.46" y="116" fill="#C8992A">+</text>
              <text x="107.15" y="116" fill="#C8992A">*</text>
              <text x="116.83" y="116" fill="#FFFFFF">.</text>
              <text x="136.20" y="116" fill="#FFFFFF">.</text>
              <text x="145.88" y="116" fill="#FFFFFF">-</text>
              <text x="155.56" y="116" fill="#FFFFFF">.</text>
              <text x="174.93" y="116" fill="#FFFFFF">.</text>
              <text x="194.29" y="116" fill="#FFFFFF">-</text>
              <text x="203.98" y="116" fill="#FFFFFF">#</text>
              <text x="213.66" y="116" fill="#FFFFFF">-</text>
              <text x="223.34" y="116" fill="#FFFFFF">.</text>
              <text x="233.03" y="116" fill="#FFFFFF">-</text>
              <text x="242.71" y="116" fill="#FFFFFF">:</text>
              <text x="262.07" y="116" fill="#FFFFFF">.</text>
              <text x="271.76" y="116" fill="#FFFFFF">-</text>
              <text x="281.44" y="116" fill="#FFFFFF">.</text>
              <text x="300.81" y="116" fill="#FFFFFF">.</text>
              <text x="310.49" y="116" fill="#C8992A">*</text>
              <text x="320.17" y="116" fill="#C8992A">+</text>
              <text x="329.86" y="116" fill="#BF0A30">:</text>
              <text x="339.54" y="116" fill="#BF0A30">:</text>
              <text x="349.22" y="116" fill="#BF0A30">:</text>
              <text x="358.90" y="116" fill="#BF0A30">:</text>
              <text x="368.59" y="116" fill="#BF0A30">:</text>
              <text x="378.27" y="116" fill="#BF0A30">:</text>
              <text x="387.95" y="116" fill="#BF0A30">:</text>
              <text x="397.64" y="116" fill="#BF0A30">:</text>
              <text x="20.00" y="136" fill="#BF0A30">:</text>
              <text x="29.68" y="136" fill="#BF0A30">:</text>
              <text x="39.37" y="136" fill="#BF0A30">:</text>
              <text x="49.05" y="136" fill="#BF0A30">:</text>
              <text x="58.73" y="136" fill="#BF0A30">:</text>
              <text x="68.41" y="136" fill="#BF0A30">:</text>
              <text x="78.10" y="136" fill="#BF0A30">:</text>
              <text x="87.78" y="136" fill="#BF0A30">:</text>
              <text x="97.46" y="136" fill="#C8992A">+</text>
              <text x="107.15" y="136" fill="#C8992A">*</text>
              <text x="116.83" y="136" fill="#FFFFFF">.</text>
              <text x="136.20" y="136" fill="#FFFFFF">-</text>
              <text x="145.88" y="136" fill="#FFFFFF">.</text>
              <text x="165.25" y="136" fill="#FFFFFF">.</text>
              <text x="174.93" y="136" fill="#FFFFFF">#</text>
              <text x="184.61" y="136" fill="#FFFFFF">*</text>
              <text x="194.29" y="136" fill="#FFFFFF">%</text>
              <text x="203.98" y="136" fill="#FFFFFF">@</text>
              <text x="213.66" y="136" fill="#FFFFFF">%</text>
              <text x="223.34" y="136" fill="#FFFFFF">*</text>
              <text x="233.03" y="136" fill="#FFFFFF">@</text>
              <text x="242.71" y="136" fill="#FFFFFF">#</text>
              <text x="271.76" y="136" fill="#FFFFFF">.</text>
              <text x="281.44" y="136" fill="#FFFFFF">-</text>
              <text x="300.81" y="136" fill="#FFFFFF">.</text>
              <text x="310.49" y="136" fill="#C8992A">*</text>
              <text x="320.17" y="136" fill="#C8992A">+</text>
              <text x="329.86" y="136" fill="#BF0A30">:</text>
              <text x="339.54" y="136" fill="#BF0A30">:</text>
              <text x="349.22" y="136" fill="#BF0A30">:</text>
              <text x="358.90" y="136" fill="#BF0A30">:</text>
              <text x="368.59" y="136" fill="#BF0A30">:</text>
              <text x="378.27" y="136" fill="#BF0A30">:</text>
              <text x="387.95" y="136" fill="#BF0A30">:</text>
              <text x="397.64" y="136" fill="#BF0A30">:</text>
              <text x="20.00" y="156" fill="#BF0A30">:</text>
              <text x="29.68" y="156" fill="#BF0A30">:</text>
              <text x="39.37" y="156" fill="#BF0A30">:</text>
              <text x="49.05" y="156" fill="#BF0A30">:</text>
              <text x="58.73" y="156" fill="#BF0A30">:</text>
              <text x="68.41" y="156" fill="#BF0A30">:</text>
              <text x="78.10" y="156" fill="#BF0A30">:</text>
              <text x="87.78" y="156" fill="#BF0A30">:</text>
              <text x="97.46" y="156" fill="#C8992A">+</text>
              <text x="107.15" y="156" fill="#C8992A">*</text>
              <text x="116.83" y="156" fill="#FFFFFF">.</text>
              <text x="126.51" y="156" fill="#FFFFFF">.</text>
              <text x="136.20" y="156" fill="#FFFFFF">-</text>
              <text x="145.88" y="156" fill="#FFFFFF">.</text>
              <text x="155.56" y="156" fill="#FFFFFF">.</text>
              <text x="165.25" y="156" fill="#FFFFFF">+</text>
              <text x="174.93" y="156" fill="#FFFFFF">%</text>
              <text x="184.61" y="156" fill="#FFFFFF">%</text>
              <text x="194.29" y="156" fill="#FFFFFF">#</text>
              <text x="203.98" y="156" fill="#FFFFFF">#</text>
              <text x="213.66" y="156" fill="#FFFFFF">#</text>
              <text x="223.34" y="156" fill="#FFFFFF">#</text>
              <text x="233.03" y="156" fill="#FFFFFF">%</text>
              <text x="242.71" y="156" fill="#FFFFFF">%</text>
              <text x="252.39" y="156" fill="#FFFFFF">*</text>
              <text x="262.07" y="156" fill="#FFFFFF">.</text>
              <text x="271.76" y="156" fill="#FFFFFF">.</text>
              <text x="281.44" y="156" fill="#FFFFFF">-</text>
              <text x="291.12" y="156" fill="#FFFFFF">.</text>
              <text x="300.81" y="156" fill="#FFFFFF">.</text>
              <text x="310.49" y="156" fill="#C8992A">*</text>
              <text x="320.17" y="156" fill="#C8992A">+</text>
              <text x="329.86" y="156" fill="#BF0A30">:</text>
              <text x="339.54" y="156" fill="#BF0A30">:</text>
              <text x="349.22" y="156" fill="#BF0A30">:</text>
              <text x="358.90" y="156" fill="#BF0A30">:</text>
              <text x="368.59" y="156" fill="#BF0A30">:</text>
              <text x="378.27" y="156" fill="#BF0A30">:</text>
              <text x="387.95" y="156" fill="#BF0A30">:</text>
              <text x="397.64" y="156" fill="#BF0A30">:</text>
              <text x="20.00" y="176" fill="#BF0A30">:</text>
              <text x="29.68" y="176" fill="#BF0A30">:</text>
              <text x="39.37" y="176" fill="#BF0A30">:</text>
              <text x="49.05" y="176" fill="#BF0A30">:</text>
              <text x="58.73" y="176" fill="#BF0A30">:</text>
              <text x="68.41" y="176" fill="#BF0A30">:</text>
              <text x="78.10" y="176" fill="#BF0A30">:</text>
              <text x="87.78" y="176" fill="#BF0A30">:</text>
              <text x="97.46" y="176" fill="#C8992A">+</text>
              <text x="107.15" y="176" fill="#C8992A">*</text>
              <text x="116.83" y="176" fill="#FFFFFF">.</text>
              <text x="136.20" y="176" fill="#FFFFFF">:</text>
              <text x="145.88" y="176" fill="#FFFFFF">:</text>
              <text x="165.25" y="176" fill="#FFFFFF">.</text>
              <text x="174.93" y="176" fill="#FFFFFF">:</text>
              <text x="184.61" y="176" fill="#FFFFFF">:</text>
              <text x="194.29" y="176" fill="#FFFFFF">*</text>
              <text x="203.98" y="176" fill="#FFFFFF">%</text>
              <text x="213.66" y="176" fill="#FFFFFF">%</text>
              <text x="223.34" y="176" fill="#FFFFFF">+</text>
              <text x="233.03" y="176" fill="#FFFFFF">:</text>
              <text x="242.71" y="176" fill="#FFFFFF">-</text>
              <text x="252.39" y="176" fill="#FFFFFF">:</text>
              <text x="271.76" y="176" fill="#FFFFFF">:</text>
              <text x="281.44" y="176" fill="#FFFFFF">:</text>
              <text x="300.81" y="176" fill="#FFFFFF">.</text>
              <text x="310.49" y="176" fill="#C8992A">*</text>
              <text x="320.17" y="176" fill="#C8992A">+</text>
              <text x="329.86" y="176" fill="#BF0A30">:</text>
              <text x="339.54" y="176" fill="#BF0A30">:</text>
              <text x="349.22" y="176" fill="#BF0A30">:</text>
              <text x="358.90" y="176" fill="#BF0A30">:</text>
              <text x="368.59" y="176" fill="#BF0A30">:</text>
              <text x="378.27" y="176" fill="#BF0A30">:</text>
              <text x="387.95" y="176" fill="#BF0A30">:</text>
              <text x="397.64" y="176" fill="#BF0A30">:</text>
              <text x="20.00" y="196" fill="#BF0A30">:</text>
              <text x="29.68" y="196" fill="#BF0A30">:</text>
              <text x="39.37" y="196" fill="#BF0A30">:</text>
              <text x="49.05" y="196" fill="#BF0A30">:</text>
              <text x="58.73" y="196" fill="#BF0A30">:</text>
              <text x="68.41" y="196" fill="#BF0A30">:</text>
              <text x="78.10" y="196" fill="#BF0A30">:</text>
              <text x="87.78" y="196" fill="#BF0A30">:</text>
              <text x="97.46" y="196" fill="#C8992A">+</text>
              <text x="107.15" y="196" fill="#C8992A">*</text>
              <text x="116.83" y="196" fill="#FFFFFF">.</text>
              <text x="145.88" y="196" fill="#FFFFFF">:</text>
              <text x="155.56" y="196" fill="#FFFFFF">:</text>
              <text x="165.25" y="196" fill="#FFFFFF">.</text>
              <text x="203.98" y="196" fill="#FFFFFF">.</text>
              <text x="213.66" y="196" fill="#FFFFFF">.</text>
              <text x="252.39" y="196" fill="#FFFFFF">.</text>
              <text x="262.07" y="196" fill="#FFFFFF">:</text>
              <text x="271.76" y="196" fill="#FFFFFF">:</text>
              <text x="300.81" y="196" fill="#FFFFFF">.</text>
              <text x="310.49" y="196" fill="#C8992A">*</text>
              <text x="320.17" y="196" fill="#C8992A">+</text>
              <text x="329.86" y="196" fill="#BF0A30">:</text>
              <text x="339.54" y="196" fill="#BF0A30">:</text>
              <text x="349.22" y="196" fill="#BF0A30">:</text>
              <text x="358.90" y="196" fill="#BF0A30">:</text>
              <text x="368.59" y="196" fill="#BF0A30">:</text>
              <text x="378.27" y="196" fill="#BF0A30">:</text>
              <text x="387.95" y="196" fill="#BF0A30">:</text>
              <text x="397.64" y="196" fill="#BF0A30">:</text>
              <text x="20.00" y="216" fill="#BF0A30">:</text>
              <text x="29.68" y="216" fill="#BF0A30">:</text>
              <text x="39.37" y="216" fill="#BF0A30">:</text>
              <text x="49.05" y="216" fill="#BF0A30">:</text>
              <text x="58.73" y="216" fill="#BF0A30">:</text>
              <text x="68.41" y="216" fill="#BF0A30">:</text>
              <text x="78.10" y="216" fill="#BF0A30">:</text>
              <text x="87.78" y="216" fill="#BF0A30">:</text>
              <text x="97.46" y="216" fill="#C8992A">+</text>
              <text x="107.15" y="216" fill="#C8992A">*</text>
              <text x="116.83" y="216" fill="#FFFFFF">.</text>
              <text x="136.20" y="216" fill="#FFFFFF">.</text>
              <text x="155.56" y="216" fill="#FFFFFF">.</text>
              <text x="165.25" y="216" fill="#FFFFFF">:</text>
              <text x="174.93" y="216" fill="#FFFFFF">:</text>
              <text x="184.61" y="216" fill="#FFFFFF">:</text>
              <text x="194.29" y="216" fill="#FFFFFF">:</text>
              <text x="203.98" y="216" fill="#FFFFFF">.</text>
              <text x="213.66" y="216" fill="#FFFFFF">.</text>
              <text x="223.34" y="216" fill="#FFFFFF">.</text>
              <text x="233.03" y="216" fill="#FFFFFF">:</text>
              <text x="242.71" y="216" fill="#FFFFFF">:</text>
              <text x="252.39" y="216" fill="#FFFFFF">.</text>
              <text x="262.07" y="216" fill="#FFFFFF">.</text>
              <text x="281.44" y="216" fill="#FFFFFF">.</text>
              <text x="300.81" y="216" fill="#FFFFFF">.</text>
              <text x="310.49" y="216" fill="#C8992A">*</text>
              <text x="320.17" y="216" fill="#C8992A">+</text>
              <text x="329.86" y="216" fill="#BF0A30">:</text>
              <text x="339.54" y="216" fill="#BF0A30">:</text>
              <text x="349.22" y="216" fill="#BF0A30">:</text>
              <text x="358.90" y="216" fill="#BF0A30">:</text>
              <text x="368.59" y="216" fill="#BF0A30">:</text>
              <text x="378.27" y="216" fill="#BF0A30">:</text>
              <text x="387.95" y="216" fill="#BF0A30">:</text>
              <text x="397.64" y="216" fill="#BF0A30">:</text>
              <text x="20.00" y="236" fill="#BF0A30">:</text>
              <text x="29.68" y="236" fill="#BF0A30">:</text>
              <text x="39.37" y="236" fill="#BF0A30">:</text>
              <text x="49.05" y="236" fill="#BF0A30">:</text>
              <text x="58.73" y="236" fill="#BF0A30">:</text>
              <text x="68.41" y="236" fill="#BF0A30">:</text>
              <text x="78.10" y="236" fill="#BF0A30">:</text>
              <text x="87.78" y="236" fill="#BF0A30">:</text>
              <text x="97.46" y="236" fill="#C8992A">+</text>
              <text x="107.15" y="236" fill="#C8992A">*</text>
              <text x="116.83" y="236" fill="#FFFFFF">.</text>
              <text x="136.20" y="236" fill="#FFFFFF">.</text>
              <text x="145.88" y="236" fill="#FFFFFF">.</text>
              <text x="184.61" y="236" fill="#FFFFFF">.</text>
              <text x="194.29" y="236" fill="#FFFFFF">.</text>
              <text x="203.98" y="236" fill="#FFFFFF">.</text>
              <text x="213.66" y="236" fill="#FFFFFF">.</text>
              <text x="223.34" y="236" fill="#FFFFFF">.</text>
              <text x="233.03" y="236" fill="#FFFFFF">.</text>
              <text x="271.76" y="236" fill="#FFFFFF">.</text>
              <text x="281.44" y="236" fill="#FFFFFF">.</text>
              <text x="300.81" y="236" fill="#FFFFFF">.</text>
              <text x="310.49" y="236" fill="#C8992A">*</text>
              <text x="320.17" y="236" fill="#C8992A">+</text>
              <text x="329.86" y="236" fill="#BF0A30">:</text>
              <text x="339.54" y="236" fill="#BF0A30">:</text>
              <text x="349.22" y="236" fill="#BF0A30">:</text>
              <text x="358.90" y="236" fill="#BF0A30">:</text>
              <text x="368.59" y="236" fill="#BF0A30">:</text>
              <text x="378.27" y="236" fill="#BF0A30">:</text>
              <text x="387.95" y="236" fill="#BF0A30">:</text>
              <text x="397.64" y="236" fill="#BF0A30">:</text>
              <text x="20.00" y="256" fill="#BF0A30">:</text>
              <text x="29.68" y="256" fill="#BF0A30">:</text>
              <text x="39.37" y="256" fill="#BF0A30">:</text>
              <text x="49.05" y="256" fill="#BF0A30">:</text>
              <text x="58.73" y="256" fill="#BF0A30">:</text>
              <text x="68.41" y="256" fill="#BF0A30">:</text>
              <text x="78.10" y="256" fill="#BF0A30">:</text>
              <text x="87.78" y="256" fill="#BF0A30">:</text>
              <text x="97.46" y="256" fill="#C8992A">+</text>
              <text x="107.15" y="256" fill="#C8992A">*</text>
              <text x="116.83" y="256" fill="#FFFFFF">.</text>
              <text x="136.20" y="256" fill="#FFFFFF">.</text>
              <text x="145.88" y="256" fill="#FFFFFF">.</text>
              <text x="155.56" y="256" fill="#FFFFFF">.</text>
              <text x="165.25" y="256" fill="#FFFFFF">.</text>
              <text x="174.93" y="256" fill="#FFFFFF">.</text>
              <text x="242.71" y="256" fill="#FFFFFF">.</text>
              <text x="252.39" y="256" fill="#FFFFFF">.</text>
              <text x="262.07" y="256" fill="#FFFFFF">.</text>
              <text x="271.76" y="256" fill="#FFFFFF">.</text>
              <text x="281.44" y="256" fill="#FFFFFF">.</text>
              <text x="300.81" y="256" fill="#FFFFFF">.</text>
              <text x="310.49" y="256" fill="#C8992A">*</text>
              <text x="320.17" y="256" fill="#C8992A">+</text>
              <text x="329.86" y="256" fill="#BF0A30">:</text>
              <text x="339.54" y="256" fill="#BF0A30">:</text>
              <text x="349.22" y="256" fill="#BF0A30">:</text>
              <text x="358.90" y="256" fill="#BF0A30">:</text>
              <text x="368.59" y="256" fill="#BF0A30">:</text>
              <text x="378.27" y="256" fill="#BF0A30">:</text>
              <text x="387.95" y="256" fill="#BF0A30">:</text>
              <text x="397.64" y="256" fill="#BF0A30">:</text>
            </g>
          </svg>

        </div>
      </div>

    </div>
  </foreignObject>
</svg>
