<svg xmlns="http://www.w3.org/2000/svg" width="387" height="240" viewBox="0 0 387 240">
  <rect width="427" height="280" fill="black" fill-opacity="0.7" rx="8" />
  <rect x="0" y="0" width="77.48" height="240" fill="#BF0A30" opacity="0.15" />
  <rect x="77.48" y="0" width="19.37" height="240" fill="#C8992A" opacity="0.15" />
  <rect x="96.85" y="0" width="193.70" height="240" fill="#002868" opacity="0.35" />
  <rect x="290.55" y="0" width="19.37" height="240" fill="#C8992A" opacity="0.15" />
  <rect x="309.92" y="0" width="77.48" height="240" fill="#BF0A30" opacity="0.15" />
  <g font-family="Courier New, Courier, monospace" font-size="14" font-weight="bold">
    <text x="0.00" y="16" fill="#BF0A30">:</text>
    <text x="9.69" y="16" fill="#BF0A30">:</text>
    <text x="19.37" y="16" fill="#BF0A30">:</text>
    <text x="29.05" y="16" fill="#BF0A30">:</text>
    <text x="38.74" y="16" fill="#BF0A30">:</text>
    <text x="48.43" y="16" fill="#BF0A30">:</text>
    <text x="58.11" y="16" fill="#BF0A30">:</text>
    <text x="67.80" y="16" fill="#BF0A30">:</text>
    <text x="77.48" y="16" fill="#C8992A">+</text>
    <text x="87.17" y="16" fill="#C8992A">*</text>
    <text x="96.85" y="16" fill="#FFFFFF">.</text>
    <text x="116.22" y="16" fill="#FFFFFF">.</text>
    <text x="125.91" y="16" fill="#FFFFFF">.</text>
    <text x="135.59" y="16" fill="#FFFFFF">.</text>
    <text x="145.28" y="16" fill="#FFFFFF">.</text>
    <text x="154.96" y="16" fill="#FFFFFF">.</text>
    <text x="164.65" y="16" fill="#FFFFFF">.</text>
    <text x="174.33" y="16" fill="#FFFFFF">.</text>
    <text x="203.39" y="16" fill="#FFFFFF">.</text>
    <text x="213.07" y="16" fill="#FFFFFF">.</text>
    <text x="222.76" y="16" fill="#FFFFFF">.</text>
    <text x="232.44" y="16" fill="#FFFFFF">.</text>
    <text x="242.12" y="16" fill="#FFFFFF">.</text>
    <text x="251.81" y="16" fill="#FFFFFF">.</text>
    <text x="261.50" y="16" fill="#FFFFFF">.</text>
    <text x="280.87" y="16" fill="#FFFFFF">.</text>
    <text x="290.55" y="16" fill="#C8992A">*</text>
    <text x="300.24" y="16" fill="#C8992A">+</text>
    <text x="309.92" y="16" fill="#BF0A30">:</text>
    <text x="319.61" y="16" fill="#BF0A30">:</text>
    <text x="329.29" y="16" fill="#BF0A30">:</text>
    <text x="338.98" y="16" fill="#BF0A30">:</text>
    <text x="348.66" y="16" fill="#BF0A30">:</text>
    <text x="358.35" y="16" fill="#BF0A30">:</text>
    <text x="368.03" y="16" fill="#BF0A30">:</text>
    <text x="377.72" y="16" fill="#BF0A30">:</text>
    <text x="0.00" y="36" fill="#BF0A30">:</text>
    <text x="9.69" y="36" fill="#BF0A30">:</text>
    <text x="19.37" y="36" fill="#BF0A30">:</text>
    <text x="29.05" y="36" fill="#BF0A30">:</text>
    <text x="38.74" y="36" fill="#BF0A30">:</text>
    <text x="48.43" y="36" fill="#BF0A30">:</text>
    <text x="58.11" y="36" fill="#BF0A30">:</text>
    <text x="67.80" y="36" fill="#BF0A30">:</text>
    <text x="77.48" y="36" fill="#C8992A">+</text>
    <text x="87.17" y="36" fill="#C8992A">*</text>
    <text x="96.85" y="36" fill="#FFFFFF">.</text>
    <text x="116.22" y="36" fill="#FFFFFF">.</text>
    <text x="125.91" y="36" fill="#FFFFFF">.</text>
    <text x="164.65" y="36" fill="#FFFFFF">.</text>
    <text x="174.33" y="36" fill="#FFFFFF">.</text>
    <text x="184.02" y="36" fill="#FFFFFF">.</text>
    <text x="193.70" y="36" fill="#FFFFFF">.</text>
    <text x="203.39" y="36" fill="#FFFFFF">.</text>
    <text x="213.07" y="36" fill="#FFFFFF">.</text>
    <text x="251.81" y="36" fill="#FFFFFF">.</text>
    <text x="261.50" y="36" fill="#FFFFFF">.</text>
    <text x="280.87" y="36" fill="#FFFFFF">.</text>
    <text x="290.55" y="36" fill="#C8992A">*</text>
    <text x="300.24" y="36" fill="#C8992A">+</text>
    <text x="309.92" y="36" fill="#BF0A30">:</text>
    <text x="319.61" y="36" fill="#BF0A30">:</text>
    <text x="329.29" y="36" fill="#BF0A30">:</text>
    <text x="338.98" y="36" fill="#BF0A30">:</text>
    <text x="348.66" y="36" fill="#BF0A30">:</text>
    <text x="358.35" y="36" fill="#BF0A30">:</text>
    <text x="368.03" y="36" fill="#BF0A30">:</text>
    <text x="377.72" y="36" fill="#BF0A30">:</text>
    <text x="0.00" y="56" fill="#BF0A30">:</text>
    <text x="9.69" y="56" fill="#BF0A30">:</text>
    <text x="19.37" y="56" fill="#BF0A30">:</text>
    <text x="29.05" y="56" fill="#BF0A30">:</text>
    <text x="38.74" y="56" fill="#BF0A30">:</text>
    <text x="48.43" y="56" fill="#BF0A30">:</text>
    <text x="58.11" y="56" fill="#BF0A30">:</text>
    <text x="67.80" y="56" fill="#BF0A30">:</text>
    <text x="77.48" y="56" fill="#C8992A">+</text>
    <text x="87.17" y="56" fill="#C8992A">*</text>
    <text x="96.85" y="56" fill="#FFFFFF">.</text>
    <text x="116.22" y="56" fill="#FFFFFF">.</text>
    <text x="135.59" y="56" fill="#FFFFFF">.</text>
    <text x="145.28" y="56" fill="#FFFFFF">.</text>
    <text x="154.96" y="56" fill="#FFFFFF">:</text>
    <text x="164.65" y="56" fill="#FFFFFF">:</text>
    <text x="174.33" y="56" fill="#FFFFFF">:</text>
    <text x="184.02" y="56" fill="#FFFFFF">:</text>
    <text x="193.70" y="56" fill="#FFFFFF">:</text>
    <text x="203.39" y="56" fill="#FFFFFF">:</text>
    <text x="213.07" y="56" fill="#FFFFFF">:</text>
    <text x="222.76" y="56" fill="#FFFFFF">:</text>
    <text x="232.44" y="56" fill="#FFFFFF">.</text>
    <text x="242.12" y="56" fill="#FFFFFF">.</text>
    <text x="261.50" y="56" fill="#FFFFFF">.</text>
    <text x="280.87" y="56" fill="#FFFFFF">.</text>
    <text x="290.55" y="56" fill="#C8992A">*</text>
    <text x="300.24" y="56" fill="#C8992A">+</text>
    <text x="309.92" y="56" fill="#BF0A30">:</text>
    <text x="319.61" y="56" fill="#BF0A30">:</text>
    <text x="329.29" y="56" fill="#BF0A30">:</text>
    <text x="338.98" y="56" fill="#BF0A30">:</text>
    <text x="348.66" y="56" fill="#BF0A30">:</text>
    <text x="358.35" y="56" fill="#BF0A30">:</text>
    <text x="368.03" y="56" fill="#BF0A30">:</text>
    <text x="377.72" y="56" fill="#BF0A30">:</text>
    <text x="0.00" y="76" fill="#BF0A30">:</text>
    <text x="9.69" y="76" fill="#BF0A30">:</text>
    <text x="19.37" y="76" fill="#BF0A30">:</text>
    <text x="29.05" y="76" fill="#BF0A30">:</text>
    <text x="38.74" y="76" fill="#BF0A30">:</text>
    <text x="48.43" y="76" fill="#BF0A30">:</text>
    <text x="58.11" y="76" fill="#BF0A30">:</text>
    <text x="67.80" y="76" fill="#BF0A30">:</text>
    <text x="77.48" y="76" fill="#C8992A">+</text>
    <text x="87.17" y="76" fill="#C8992A">*</text>
    <text x="96.85" y="76" fill="#FFFFFF">.</text>
    <text x="125.91" y="76" fill="#FFFFFF">.</text>
    <text x="135.59" y="76" fill="#FFFFFF">:</text>
    <text x="145.28" y="76" fill="#FFFFFF">:</text>
    <text x="154.96" y="76" fill="#FFFFFF">.</text>
    <text x="164.65" y="76" fill="#FFFFFF">.</text>
    <text x="203.39" y="76" fill="#FFFFFF">.</text>
    <text x="222.76" y="76" fill="#FFFFFF">.</text>
    <text x="232.44" y="76" fill="#FFFFFF">:</text>
    <text x="242.12" y="76" fill="#FFFFFF">:</text>
    <text x="251.81" y="76" fill="#FFFFFF">.</text>
    <text x="280.87" y="76" fill="#FFFFFF">.</text>
    <text x="290.55" y="76" fill="#C8992A">*</text>
    <text x="300.24" y="76" fill="#C8992A">+</text>
    <text x="309.92" y="76" fill="#BF0A30">:</text>
    <text x="319.61" y="76" fill="#BF0A30">:</text>
    <text x="329.29" y="76" fill="#BF0A30">:</text>
    <text x="338.98" y="76" fill="#BF0A30">:</text>
    <text x="348.66" y="76" fill="#BF0A30">:</text>
    <text x="358.35" y="76" fill="#BF0A30">:</text>
    <text x="368.03" y="76" fill="#BF0A30">:</text>
    <text x="377.72" y="76" fill="#BF0A30">:</text>
    <text x="0.00" y="96" fill="#BF0A30">:</text>
    <text x="9.69" y="96" fill="#BF0A30">:</text>
    <text x="19.37" y="96" fill="#BF0A30">:</text>
    <text x="29.05" y="96" fill="#BF0A30">:</text>
    <text x="38.74" y="96" fill="#BF0A30">:</text>
    <text x="48.43" y="96" fill="#BF0A30">:</text>
    <text x="58.11" y="96" fill="#BF0A30">:</text>
    <text x="67.80" y="96" fill="#BF0A30">:</text>
    <text x="77.48" y="96" fill="#C8992A">+</text>
    <text x="87.17" y="96" fill="#C8992A">*</text>
    <text x="96.85" y="96" fill="#FFFFFF">.</text>
    <text x="116.22" y="96" fill="#FFFFFF">.</text>
    <text x="125.91" y="96" fill="#FFFFFF">-</text>
    <text x="135.59" y="96" fill="#FFFFFF">.</text>
    <text x="154.96" y="96" fill="#FFFFFF">.</text>
    <text x="174.33" y="96" fill="#FFFFFF">-</text>
    <text x="184.02" y="96" fill="#FFFFFF">#</text>
    <text x="193.70" y="96" fill="#FFFFFF">-</text>
    <text x="203.39" y="96" fill="#FFFFFF">.</text>
    <text x="213.07" y="96" fill="#FFFFFF">-</text>
    <text x="222.76" y="96" fill="#FFFFFF">:</text>
    <text x="242.12" y="96" fill="#FFFFFF">.</text>
    <text x="251.81" y="96" fill="#FFFFFF">-</text>
    <text x="261.50" y="96" fill="#FFFFFF">.</text>
    <text x="280.87" y="96" fill="#FFFFFF">.</text>
    <text x="290.55" y="96" fill="#C8992A">*</text>
    <text x="300.24" y="96" fill="#C8992A">+</text>
    <text x="309.92" y="96" fill="#BF0A30">:</text>
    <text x="319.61" y="96" fill="#BF0A30">:</text>
    <text x="329.29" y="96" fill="#BF0A30">:</text>
    <text x="338.98" y="96" fill="#BF0A30">:</text>
    <text x="348.66" y="96" fill="#BF0A30">:</text>
    <text x="358.35" y="96" fill="#BF0A30">:</text>
    <text x="368.03" y="96" fill="#BF0A30">:</text>
    <text x="377.72" y="96" fill="#BF0A30">:</text>
    <text x="0.00" y="116" fill="#BF0A30">:</text>
    <text x="9.69" y="116" fill="#BF0A30">:</text>
    <text x="19.37" y="116" fill="#BF0A30">:</text>
    <text x="29.05" y="116" fill="#BF0A30">:</text>
    <text x="38.74" y="116" fill="#BF0A30">:</text>
    <text x="48.43" y="116" fill="#BF0A30">:</text>
    <text x="58.11" y="116" fill="#BF0A30">:</text>
    <text x="67.80" y="116" fill="#BF0A30">:</text>
    <text x="77.48" y="116" fill="#C8992A">+</text>
    <text x="87.17" y="116" fill="#C8992A">*</text>
    <text x="96.85" y="116" fill="#FFFFFF">.</text>
    <text x="116.22" y="116" fill="#FFFFFF">-</text>
    <text x="125.91" y="116" fill="#FFFFFF">.</text>
    <text x="145.28" y="116" fill="#FFFFFF">.</text>
    <text x="154.96" y="116" fill="#FFFFFF">#</text>
    <text x="164.65" y="116" fill="#FFFFFF">*</text>
    <text x="174.33" y="116" fill="#FFFFFF">%</text>
    <text x="184.02" y="116" fill="#FFFFFF">@</text>
    <text x="193.70" y="116" fill="#FFFFFF">%</text>
    <text x="203.39" y="116" fill="#FFFFFF">*</text>
    <text x="213.07" y="116" fill="#FFFFFF">@</text>
    <text x="222.76" y="116" fill="#FFFFFF">#</text>
    <text x="251.81" y="116" fill="#FFFFFF">.</text>
    <text x="261.50" y="116" fill="#FFFFFF">-</text>
    <text x="280.87" y="116" fill="#FFFFFF">.</text>
    <text x="290.55" y="116" fill="#C8992A">*</text>
    <text x="300.24" y="116" fill="#C8992A">+</text>
    <text x="309.92" y="116" fill="#BF0A30">:</text>
    <text x="319.61" y="116" fill="#BF0A30">:</text>
    <text x="329.29" y="116" fill="#BF0A30">:</text>
    <text x="338.98" y="116" fill="#BF0A30">:</text>
    <text x="348.66" y="116" fill="#BF0A30">:</text>
    <text x="358.35" y="116" fill="#BF0A30">:</text>
    <text x="368.03" y="116" fill="#BF0A30">:</text>
    <text x="377.72" y="116" fill="#BF0A30">:</text>
    <text x="0.00" y="136" fill="#BF0A30">:</text>
    <text x="9.69" y="136" fill="#BF0A30">:</text>
    <text x="19.37" y="136" fill="#BF0A30">:</text>
    <text x="29.05" y="136" fill="#BF0A30">:</text>
    <text x="38.74" y="136" fill="#BF0A30">:</text>
    <text x="48.43" y="136" fill="#BF0A30">:</text>
    <text x="58.11" y="136" fill="#BF0A30">:</text>
    <text x="67.80" y="136" fill="#BF0A30">:</text>
    <text x="77.48" y="136" fill="#C8992A">+</text>
    <text x="87.17" y="136" fill="#C8992A">*</text>
    <text x="96.85" y="136" fill="#FFFFFF">.</text>
    <text x="106.54" y="136" fill="#FFFFFF">.</text>
    <text x="116.22" y="136" fill="#FFFFFF">-</text>
    <text x="125.91" y="136" fill="#FFFFFF">.</text>
    <text x="135.59" y="136" fill="#FFFFFF">.</text>
    <text x="145.28" y="136" fill="#FFFFFF">+</text>
    <text x="154.96" y="136" fill="#FFFFFF">%</text>
    <text x="164.65" y="136" fill="#FFFFFF">%</text>
    <text x="174.33" y="136" fill="#FFFFFF">#</text>
    <text x="184.02" y="136" fill="#FFFFFF">#</text>
    <text x="193.70" y="136" fill="#FFFFFF">#</text>
    <text x="203.39" y="136" fill="#FFFFFF">#</text>
    <text x="213.07" y="136" fill="#FFFFFF">%</text>
    <text x="222.76" y="136" fill="#FFFFFF">%</text>
    <text x="232.44" y="136" fill="#FFFFFF">*</text>
    <text x="242.12" y="136" fill="#FFFFFF">.</text>
    <text x="251.81" y="136" fill="#FFFFFF">.</text>
    <text x="261.50" y="136" fill="#FFFFFF">-</text>
    <text x="271.18" y="136" fill="#FFFFFF">.</text>
    <text x="280.87" y="136" fill="#FFFFFF">.</text>
    <text x="290.55" y="136" fill="#C8992A">*</text>
    <text x="300.24" y="136" fill="#C8992A">+</text>
    <text x="309.92" y="136" fill="#BF0A30">:</text>
    <text x="319.61" y="136" fill="#BF0A30">:</text>
    <text x="329.29" y="136" fill="#BF0A30">:</text>
    <text x="338.98" y="136" fill="#BF0A30">:</text>
    <text x="348.66" y="136" fill="#BF0A30">:</text>
    <text x="358.35" y="136" fill="#BF0A30">:</text>
    <text x="368.03" y="136" fill="#BF0A30">:</text>
    <text x="377.72" y="136" fill="#BF0A30">:</text>
    <text x="0.00" y="156" fill="#BF0A30">:</text>
    <text x="9.69" y="156" fill="#BF0A30">:</text>
    <text x="19.37" y="156" fill="#BF0A30">:</text>
    <text x="29.05" y="156" fill="#BF0A30">:</text>
    <text x="38.74" y="156" fill="#BF0A30">:</text>
    <text x="48.43" y="156" fill="#BF0A30">:</text>
    <text x="58.11" y="156" fill="#BF0A30">:</text>
    <text x="67.80" y="156" fill="#BF0A30">:</text>
    <text x="77.48" y="156" fill="#C8992A">+</text>
    <text x="87.17" y="156" fill="#C8992A">*</text>
    <text x="96.85" y="156" fill="#FFFFFF">.</text>
    <text x="116.22" y="156" fill="#FFFFFF">:</text>
    <text x="125.91" y="156" fill="#FFFFFF">:</text>
    <text x="145.28" y="156" fill="#FFFFFF">.</text>
    <text x="154.96" y="156" fill="#FFFFFF">:</text>
    <text x="164.65" y="156" fill="#FFFFFF">:</text>
    <text x="174.33" y="156" fill="#FFFFFF">*</text>
    <text x="184.02" y="156" fill="#FFFFFF">%</text>
    <text x="193.70" y="156" fill="#FFFFFF">%</text>
    <text x="203.39" y="156" fill="#FFFFFF">+</text>
    <text x="213.07" y="156" fill="#FFFFFF">:</text>
    <text x="222.76" y="156" fill="#FFFFFF">-</text>
    <text x="232.44" y="156" fill="#FFFFFF">:</text>
    <text x="251.81" y="156" fill="#FFFFFF">:</text>
    <text x="261.50" y="156" fill="#FFFFFF">:</text>
    <text x="280.87" y="156" fill="#FFFFFF">.</text>
    <text x="290.55" y="156" fill="#C8992A">*</text>
    <text x="300.24" y="156" fill="#C8992A">+</text>
    <text x="309.92" y="156" fill="#BF0A30">:</text>
    <text x="319.61" y="156" fill="#BF0A30">:</text>
    <text x="329.29" y="156" fill="#BF0A30">:</text>
    <text x="338.98" y="156" fill="#BF0A30">:</text>
    <text x="348.66" y="156" fill="#BF0A30">:</text>
    <text x="358.35" y="156" fill="#BF0A30">:</text>
    <text x="368.03" y="156" fill="#BF0A30">:</text>
    <text x="377.72" y="156" fill="#BF0A30">:</text>
    <text x="0.00" y="176" fill="#BF0A30">:</text>
    <text x="9.69" y="176" fill="#BF0A30">:</text>
    <text x="19.37" y="176" fill="#BF0A30">:</text>
    <text x="29.05" y="176" fill="#BF0A30">:</text>
    <text x="38.74" y="176" fill="#BF0A30">:</text>
    <text x="48.43" y="176" fill="#BF0A30">:</text>
    <text x="58.11" y="176" fill="#BF0A30">:</text>
    <text x="67.80" y="176" fill="#BF0A30">:</text>
    <text x="77.48" y="176" fill="#C8992A">+</text>
    <text x="87.17" y="176" fill="#C8992A">*</text>
    <text x="96.85" y="176" fill="#FFFFFF">.</text>
    <text x="125.91" y="176" fill="#FFFFFF">:</text>
    <text x="135.59" y="176" fill="#FFFFFF">:</text>
    <text x="145.28" y="176" fill="#FFFFFF">.</text>
    <text x="184.02" y="176" fill="#FFFFFF">.</text>
    <text x="193.70" y="176" fill="#FFFFFF">.</text>
    <text x="232.44" y="176" fill="#FFFFFF">.</text>
    <text x="242.12" y="176" fill="#FFFFFF">:</text>
    <text x="251.81" y="176" fill="#FFFFFF">:</text>
    <text x="280.87" y="176" fill="#FFFFFF">.</text>
    <text x="290.55" y="176" fill="#C8992A">*</text>
    <text x="300.24" y="176" fill="#C8992A">+</text>
    <text x="309.92" y="176" fill="#BF0A30">:</text>
    <text x="319.61" y="176" fill="#BF0A30">:</text>
    <text x="329.29" y="176" fill="#BF0A30">:</text>
    <text x="338.98" y="176" fill="#BF0A30">:</text>
    <text x="348.66" y="176" fill="#BF0A30">:</text>
    <text x="358.35" y="176" fill="#BF0A30">:</text>
    <text x="368.03" y="176" fill="#BF0A30">:</text>
    <text x="377.72" y="176" fill="#BF0A30">:</text>
    <text x="0.00" y="196" fill="#BF0A30">:</text>
    <text x="9.69" y="196" fill="#BF0A30">:</text>
    <text x="19.37" y="196" fill="#BF0A30">:</text>
    <text x="29.05" y="196" fill="#BF0A30">:</text>
    <text x="38.74" y="196" fill="#BF0A30">:</text>
    <text x="48.43" y="196" fill="#BF0A30">:</text>
    <text x="58.11" y="196" fill="#BF0A30">:</text>
    <text x="67.80" y="196" fill="#BF0A30">:</text>
    <text x="77.48" y="196" fill="#C8992A">+</text>
    <text x="87.17" y="196" fill="#C8992A">*</text>
    <text x="96.85" y="196" fill="#FFFFFF">.</text>
    <text x="116.22" y="196" fill="#FFFFFF">.</text>
    <text x="135.59" y="196" fill="#FFFFFF">.</text>
    <text x="145.28" y="196" fill="#FFFFFF">:</text>
    <text x="154.96" y="196" fill="#FFFFFF">:</text>
    <text x="164.65" y="196" fill="#FFFFFF">:</text>
    <text x="174.33" y="196" fill="#FFFFFF">:</text>
    <text x="184.02" y="196" fill="#FFFFFF">.</text>
    <text x="193.70" y="196" fill="#FFFFFF">.</text>
    <text x="203.39" y="196" fill="#FFFFFF">.</text>
    <text x="213.07" y="196" fill="#FFFFFF">:</text>
    <text x="222.76" y="196" fill="#FFFFFF">:</text>
    <text x="232.44" y="196" fill="#FFFFFF">.</text>
    <text x="242.12" y="196" fill="#FFFFFF">.</text>
    <text x="261.50" y="196" fill="#FFFFFF">.</text>
    <text x="280.87" y="196" fill="#FFFFFF">.</text>
    <text x="290.55" y="196" fill="#C8992A">*</text>
    <text x="300.24" y="196" fill="#C8992A">+</text>
    <text x="309.92" y="196" fill="#BF0A30">:</text>
    <text x="319.61" y="196" fill="#BF0A30">:</text>
    <text x="329.29" y="196" fill="#BF0A30">:</text>
    <text x="338.98" y="196" fill="#BF0A30">:</text>
    <text x="348.66" y="196" fill="#BF0A30">:</text>
    <text x="358.35" y="196" fill="#BF0A30">:</text>
    <text x="368.03" y="196" fill="#BF0A30">:</text>
    <text x="377.72" y="196" fill="#BF0A30">:</text>
    <text x="0.00" y="216" fill="#BF0A30">:</text>
    <text x="9.69" y="216" fill="#BF0A30">:</text>
    <text x="19.37" y="216" fill="#BF0A30">:</text>
    <text x="29.05" y="216" fill="#BF0A30">:</text>
    <text x="38.74" y="216" fill="#BF0A30">:</text>
    <text x="48.43" y="216" fill="#BF0A30">:</text>
    <text x="58.11" y="216" fill="#BF0A30">:</text>
    <text x="67.80" y="216" fill="#BF0A30">:</text>
    <text x="77.48" y="216" fill="#C8992A">+</text>
    <text x="87.17" y="216" fill="#C8992A">*</text>
    <text x="96.85" y="216" fill="#FFFFFF">.</text>
    <text x="116.22" y="216" fill="#FFFFFF">.</text>
    <text x="125.91" y="216" fill="#FFFFFF">.</text>
    <text x="164.65" y="216" fill="#FFFFFF">.</text>
    <text x="174.33" y="216" fill="#FFFFFF">.</text>
    <text x="184.02" y="216" fill="#FFFFFF">.</text>
    <text x="193.70" y="216" fill="#FFFFFF">.</text>
    <text x="203.39" y="216" fill="#FFFFFF">.</text>
    <text x="213.07" y="216" fill="#FFFFFF">.</text>
    <text x="251.81" y="216" fill="#FFFFFF">.</text>
    <text x="261.50" y="216" fill="#FFFFFF">.</text>
    <text x="280.87" y="216" fill="#FFFFFF">.</text>
    <text x="290.55" y="216" fill="#C8992A">*</text>
    <text x="300.24" y="216" fill="#C8992A">+</text>
    <text x="309.92" y="216" fill="#BF0A30">:</text>
    <text x="319.61" y="216" fill="#BF0A30">:</text>
    <text x="329.29" y="216" fill="#BF0A30">:</text>
    <text x="338.98" y="216" fill="#BF0A30">:</text>
    <text x="348.66" y="216" fill="#BF0A30">:</text>
    <text x="358.35" y="216" fill="#BF0A30">:</text>
    <text x="368.03" y="216" fill="#BF0A30">:</text>
    <text x="377.72" y="216" fill="#BF0A30">:</text>
    <text x="0.00" y="236" fill="#BF0A30">:</text>
    <text x="9.69" y="236" fill="#BF0A30">:</text>
    <text x="19.37" y="236" fill="#BF0A30">:</text>
    <text x="29.05" y="236" fill="#BF0A30">:</text>
    <text x="38.74" y="236" fill="#BF0A30">:</text>
    <text x="48.43" y="236" fill="#BF0A30">:</text>
    <text x="58.11" y="236" fill="#BF0A30">:</text>
    <text x="67.80" y="236" fill="#BF0A30">:</text>
    <text x="77.48" y="236" fill="#C8992A">+</text>
    <text x="87.17" y="236" fill="#C8992A">*</text>
    <text x="96.85" y="236" fill="#FFFFFF">.</text>
    <text x="116.22" y="236" fill="#FFFFFF">.</text>
    <text x="125.91" y="236" fill="#FFFFFF">.</text>
    <text x="135.59" y="236" fill="#FFFFFF">.</text>
    <text x="145.28" y="236" fill="#FFFFFF">.</text>
    <text x="154.96" y="236" fill="#FFFFFF">.</text>
    <text x="222.76" y="236" fill="#FFFFFF">.</text>
    <text x="232.44" y="236" fill="#FFFFFF">.</text>
    <text x="242.12" y="236" fill="#FFFFFF">.</text>
    <text x="251.81" y="236" fill="#FFFFFF">.</text>
    <text x="261.50" y="236" fill="#FFFFFF">.</text>
    <text x="280.87" y="236" fill="#FFFFFF">.</text>
    <text x="290.55" y="236" fill="#C8992A">*</text>
    <text x="300.24" y="236" fill="#C8992A">+</text>
    <text x="309.92" y="236" fill="#BF0A30">:</text>
    <text x="319.61" y="236" fill="#BF0A30">:</text>
    <text x="329.29" y="236" fill="#BF0A30">:</text>
    <text x="338.98" y="236" fill="#BF0A30">:</text>
    <text x="348.66" y="236" fill="#BF0A30">:</text>
    <text x="358.35" y="236" fill="#BF0A30">:</text>
    <text x="368.03" y="236" fill="#BF0A30">:</text>
    <text x="377.72" y="236" fill="#BF0A30">:</text>
  </g>
</svg>
